<svg xmlns="http://www.w3.org/2000/svg" width="23" height="26" viewBox="0 0 23 26" fill="none">
<path d="M22.1367 18.0922C22.0157 17.8019 21.8948 17.4874 21.7738 17.2213C21.5802 16.7859 21.3867 16.3747 21.2174 15.9876L21.1932 15.9634C19.524 12.3348 17.7339 8.65775 15.8471 5.02913L15.7744 4.88401C15.5809 4.52113 15.3874 4.13407 15.1939 3.74701C14.952 3.31158 14.7101 2.85195 14.323 2.41652C13.5489 1.44889 12.4361 0.916687 11.2507 0.916687C10.0412 0.916687 8.95261 1.44889 8.15432 2.36814C7.79146 2.80357 7.52538 3.2632 7.28347 3.69863C7.08996 4.08569 6.89639 4.47275 6.70287 4.83561L6.63031 4.98073C4.76762 8.60936 2.9533 12.2864 1.28413 15.915L1.25994 15.9634C1.0906 16.3504 0.897077 16.7617 0.70355 17.1971C0.582596 17.4632 0.461642 17.7535 0.340688 18.068C0.0262069 18.9631 -0.0705568 19.8098 0.0503977 20.6806C0.316497 22.4949 1.52604 24.0189 3.19521 24.6963C3.82417 24.9624 4.47733 25.0834 5.15467 25.0834C5.3482 25.0834 5.5901 25.0592 5.78363 25.035C6.58192 24.9382 7.40443 24.6721 8.20271 24.2125C9.19451 23.6561 10.138 22.8578 11.2024 21.6966C12.2668 22.8578 13.2344 23.6561 14.202 24.2125C15.0004 24.6721 15.8228 24.9382 16.6211 25.035C16.8146 25.0592 17.0566 25.0834 17.2501 25.0834C17.9274 25.0834 18.6048 24.9624 19.2095 24.6963C20.9029 24.0189 22.0883 22.4708 22.3544 20.6806C22.5479 19.8339 22.4511 18.9872 22.1367 18.0922ZM11.2266 19.3501C9.92024 17.7051 9.07356 16.1569 8.78332 14.8506C8.66236 14.2942 8.63814 13.8104 8.7107 13.375C8.75909 12.9879 8.90427 12.6492 9.09779 12.3589C9.55738 11.7058 10.3315 11.2946 11.2266 11.2946C12.1216 11.2946 12.9199 11.6816 13.3553 12.3589C13.5489 12.6492 13.694 12.9879 13.7424 13.375C13.815 13.8104 13.7908 14.3184 13.6698 14.8506C13.3796 16.1327 12.5329 17.6809 11.2266 19.3501ZM20.8787 20.4871C20.7094 21.745 19.8627 22.8336 18.6773 23.3174C18.0968 23.5593 17.4678 23.6319 16.8389 23.5593C16.2341 23.4868 15.6293 23.2932 15.0004 22.9303C14.1295 22.4465 13.2586 21.6966 12.2426 20.5839C13.8392 18.6244 14.8068 16.8342 15.1697 15.2377C15.339 14.4878 15.3632 13.8104 15.2906 13.1815C15.1939 12.5767 14.9761 12.0203 14.6375 11.5365C13.8876 10.4479 12.6296 9.8189 11.2266 9.8189C9.82351 9.8189 8.56558 10.4721 7.81569 11.5365C7.47699 12.0203 7.25925 12.5767 7.16252 13.1815C7.06573 13.8104 7.08996 14.5119 7.28347 15.2377C7.64634 16.8342 8.63814 18.6486 10.2105 20.608C9.21874 21.7208 8.32367 22.4708 7.45282 22.9546C6.82382 23.3174 6.21905 23.5109 5.6143 23.5835C4.96114 23.6561 4.33218 23.5593 3.77579 23.3416C2.59043 22.8578 1.74376 21.7692 1.57442 20.5113C1.50185 19.9065 1.55023 19.3017 1.79214 18.6244C1.86471 18.3825 1.98566 18.1406 2.10662 17.8503C2.27595 17.4632 2.46948 17.052 2.66301 16.6407L2.6872 16.5923C4.35637 12.9879 6.14649 9.31092 8.0092 5.73069L8.08176 5.58551C8.27528 5.22264 8.46879 4.83561 8.66236 4.47275C8.85588 4.08569 9.07356 3.72282 9.3397 3.40834C9.84768 2.82776 10.525 2.51328 11.275 2.51328C12.0249 2.51328 12.7022 2.82776 13.2102 3.40834C13.4763 3.72282 13.694 4.08569 13.8876 4.47275C14.0811 4.83561 14.2746 5.22264 14.4682 5.58551L14.5407 5.73069C16.3792 9.33508 18.1693 13.0121 19.8385 16.6166V16.6407C20.0321 17.0278 20.2014 17.4632 20.3949 17.8503C20.5159 18.1406 20.6368 18.3825 20.7094 18.6244C20.9029 19.2533 20.9755 19.8582 20.8787 20.4871Z" fill="#FF5A5F"/>
</svg>