<svg xmlns="http://www.w3.org/2000/svg" width="29" height="30" viewBox="0 0 29 30" fill="none">
<path d="M27.1888 15.2817C27.1888 14.2386 27.1024 13.4773 26.9155 12.6879H14.7602V17.3963H21.8951C21.7513 18.5664 20.9744 20.3286 19.2482 21.5127L19.224 21.6703L23.0673 24.5881L23.3336 24.6141C25.779 22.4009 27.1888 19.1444 27.1888 15.2817Z" fill="#4285F4"/>
<path d="M14.7595 27.6875C18.255 27.6875 21.1894 26.5597 23.3329 24.6143L19.2475 21.5128C18.1543 22.26 16.687 22.7815 14.7595 22.7815C11.3359 22.7815 8.43017 20.5684 7.39436 17.5092L7.24254 17.5218L3.24626 20.5528L3.194 20.6951C5.32294 24.8398 9.69597 27.6875 14.7595 27.6875Z" fill="#34A853"/>
<path d="M7.39512 17.5093C7.12181 16.7199 6.96364 15.874 6.96364 15C6.96364 14.1259 7.12182 13.2801 7.38074 12.4907L7.3735 12.3225L3.32714 9.24292L3.19475 9.30464C2.31731 11.0245 1.81383 12.9559 1.81383 15C1.81383 17.044 2.31731 18.9753 3.19475 20.6952L7.39512 17.5093Z" fill="#FBBC05"/>
<path d="M14.7596 7.2183C17.1906 7.2183 18.8304 8.2474 19.7655 9.10738L23.4192 5.61125C21.1753 3.56716 18.2551 2.3125 14.7596 2.3125C9.69597 2.3125 5.32295 5.16012 3.194 9.30466L7.38 12.4907C8.4302 9.43159 11.3359 7.2183 14.7596 7.2183Z" fill="#EB4335"/>
</svg>